<svg width="100" height="100" viewBox="0 0 100 100" fill="none" xmlns="http://www.w3.org/2000/svg">
<path d="M53.4292 63.0083C51.275 63.0083 50.0292 65.0542 50.0292 67.7833C50.0292 70.5375 51.325 72.475 53.4458 72.475C55.6 72.475 56.8292 70.4333 56.8292 67.7C56.8292 65.1833 55.6167 63.0083 53.4292 63.0083Z" fill="black"/>
<path d="M58.3333 8.33333H25C22.7898 8.33333 20.6702 9.21131 19.1074 10.7741C17.5446 12.3369 16.6666 14.4565 16.6666 16.6667V83.3333C16.6666 85.5435 17.5446 87.6631 19.1074 89.2259C20.6702 90.7887 22.7898 91.6667 25 91.6667H75C77.2101 91.6667 79.3297 90.7887 80.8925 89.2259C82.4553 87.6631 83.3333 85.5435 83.3333 83.3333V33.3333L58.3333 8.33333ZM33.425 69.6C33.425 73.6042 31.5041 75 28.425 75C27.6916 75 26.7333 74.8792 26.1041 74.6667L26.4625 72.1042C26.8958 72.25 27.4583 72.3542 28.0916 72.3542C29.4208 72.3542 30.2583 71.75 30.2583 69.5625V60.7208H33.4291L33.425 69.6ZM39.5041 74.9792C37.9 74.9792 36.3125 74.5625 35.525 74.125L36.1708 71.4958C37.0208 71.9333 38.3416 72.375 39.6958 72.375C41.1541 72.375 41.9208 71.7667 41.9208 70.8542C41.9208 69.975 41.2583 69.475 39.5708 68.8708C37.2291 68.0583 35.7083 66.7625 35.7083 64.7208C35.7083 62.3208 37.7125 60.4833 41.0291 60.4833C42.6125 60.4833 43.775 60.8167 44.6166 61.1958L43.9 63.7583C43.3375 63.4875 42.3375 63.0917 40.9625 63.0917C39.5875 63.0917 38.9166 63.7167 38.9166 64.4458C38.9166 65.3417 39.7083 65.7417 41.5291 66.4292C44.0125 67.3458 45.1791 68.6375 45.1791 70.6208C45.1833 72.9792 43.3625 74.9792 39.5041 74.9792ZM53.2791 75C49.1083 75 46.6708 71.8542 46.6708 67.85C46.6708 63.6333 49.3625 60.4833 53.5125 60.4833C57.825 60.4833 60.1833 63.7167 60.1833 67.5958C60.1791 72.2083 57.3875 75 53.2791 75ZM73.8916 74.7708H70.55L67.5458 69.3458C66.6471 67.7368 65.8335 66.0818 65.1083 64.3875L65.0416 64.4083C65.1291 66.2625 65.1708 68.2458 65.1708 70.5417V74.775H62.25V60.7208H65.9625L68.8833 65.8708C69.7166 67.3458 70.55 69.1 71.1833 70.6833H71.2416C71.0333 68.8292 70.9708 66.9333 70.9708 64.825V60.7208H73.8958L73.8916 74.7708ZM58.3333 37.5H54.1666V16.6667L75 37.5H58.3333Z" fill="black"/>
</svg>
