<svg width="100" height="100" viewBox="0 0 100 100" fill="none" xmlns="http://www.w3.org/2000/svg">
<path fill-rule="evenodd" clip-rule="evenodd" d="M8.33325 29.1667C8.33325 21.3083 8.33325 17.3833 10.7749 14.9417C13.2166 12.5 17.1416 12.5 24.9999 12.5H74.9999C82.8583 12.5 86.7833 12.5 89.2249 14.9417C91.6666 17.3833 91.6666 21.3083 91.6666 29.1667C91.6666 37.025 91.6666 40.95 89.2249 43.3917C86.7833 45.8333 82.8583 45.8333 74.9999 45.8333H24.9999C17.1416 45.8333 13.2166 45.8333 10.7749 43.3917C8.33325 40.95 8.33325 37.025 8.33325 29.1667ZM24.9999 26.0417C24.1711 26.0417 23.3763 26.3709 22.7902 26.957C22.2042 27.543 21.8749 28.3379 21.8749 29.1667C21.8749 29.9955 22.2042 30.7903 22.7902 31.3764C23.3763 31.9624 24.1711 32.2917 24.9999 32.2917H33.3333C34.1621 32.2917 34.9569 31.9624 35.543 31.3764C36.129 30.7903 36.4583 29.9955 36.4583 29.1667C36.4583 28.3379 36.129 27.543 35.543 26.957C34.9569 26.3709 34.1621 26.0417 33.3333 26.0417H24.9999ZM42.7083 29.1667C42.7083 28.3379 43.0375 27.543 43.6235 26.957C44.2096 26.3709 45.0045 26.0417 45.8333 26.0417H74.9999C75.8287 26.0417 76.6236 26.3709 77.2096 26.957C77.7957 27.543 78.1249 28.3379 78.1249 29.1667C78.1249 29.9955 77.7957 30.7903 77.2096 31.3764C76.6236 31.9624 75.8287 32.2917 74.9999 32.2917H45.8333C45.0045 32.2917 44.2096 31.9624 43.6235 31.3764C43.0375 30.7903 42.7083 29.9955 42.7083 29.1667ZM8.33325 70.8333C8.33325 62.975 8.33325 59.05 10.7749 56.6083C13.2166 54.1667 17.1416 54.1667 24.9999 54.1667H74.9999C82.8583 54.1667 86.7833 54.1667 89.2249 56.6083C91.6666 59.05 91.6666 62.975 91.6666 70.8333C91.6666 78.6917 91.6666 82.6167 89.2249 85.0583C86.7833 87.5 82.8583 87.5 74.9999 87.5H24.9999C17.1416 87.5 13.2166 87.5 10.7749 85.0583C8.33325 82.6167 8.33325 78.6917 8.33325 70.8333ZM24.9999 67.7083C24.1711 67.7083 23.3763 68.0376 22.7902 68.6236C22.2042 69.2097 21.8749 70.0045 21.8749 70.8333C21.8749 71.6621 22.2042 72.457 22.7902 73.043C23.3763 73.6291 24.1711 73.9583 24.9999 73.9583H33.3333C34.1621 73.9583 34.9569 73.6291 35.543 73.043C36.129 72.457 36.4583 71.6621 36.4583 70.8333C36.4583 70.0045 36.129 69.2097 35.543 68.6236C34.9569 68.0376 34.1621 67.7083 33.3333 67.7083H24.9999ZM42.7083 70.8333C42.7083 70.0045 43.0375 69.2097 43.6235 68.6236C44.2096 68.0376 45.0045 67.7083 45.8333 67.7083H74.9999C75.8287 67.7083 76.6236 68.0376 77.2096 68.6236C77.7957 69.2097 78.1249 70.0045 78.1249 70.8333C78.1249 71.6621 77.7957 72.457 77.2096 73.043C76.6236 73.6291 75.8287 73.9583 74.9999 73.9583H45.8333C45.0045 73.9583 44.2096 73.6291 43.6235 73.043C43.0375 72.457 42.7083 71.6621 42.7083 70.8333Z" fill="black"/>
</svg>
