<svg width="100" height="100" viewBox="0 0 100 100" fill="none" xmlns="http://www.w3.org/2000/svg">
<g clip-path="url(#clip0_80_9)">
<path d="M55.39 -6.13307e-06C56.86 -6.13307e-06 58.175 0.914994 58.67 2.28499L62.2 12.07C63.465 12.385 64.55 12.7 65.47 13.03C66.475 13.39 67.77 13.935 69.37 14.68L77.59 10.33C78.261 9.97453 79.0291 9.84622 79.7791 9.96431C80.5292 10.0824 81.2208 10.4406 81.75 10.985L88.98 18.46C89.94 19.455 90.21 20.91 89.67 22.18L85.815 31.215C86.455 32.39 86.965 33.395 87.355 34.235C87.775 35.15 88.295 36.41 88.915 38.035L97.9 41.885C99.25 42.46 100.085 43.81 99.995 45.255L99.335 55.63C99.2899 56.304 99.0479 56.95 98.639 57.4877C98.2302 58.0254 97.6724 58.4313 97.035 58.655L88.525 61.68C88.28 62.855 88.025 63.86 87.755 64.71C87.3195 66.0227 86.8223 67.3142 86.265 68.58L90.54 78.03C90.8417 78.694 90.923 79.4371 90.7718 80.1506C90.6207 80.8641 90.2451 81.5104 89.7 81.995L81.57 89.255C81.0346 89.7311 80.3665 90.0322 79.6551 90.118C78.9438 90.2038 78.2233 90.0702 77.59 89.735L69.21 85.295C67.8989 85.9892 66.5464 86.602 65.16 87.13L61.5 88.5L58.25 97.5C58.0092 98.1591 57.5747 98.73 57.0037 99.1378C56.4326 99.5455 55.7516 99.7712 55.05 99.785L45.55 100C44.8298 100.019 44.1215 99.8141 43.5224 99.4139C42.9234 99.0136 42.4632 98.4376 42.205 97.765L38.375 87.63C37.0682 87.1834 35.7744 86.6999 34.495 86.18C33.4486 85.7271 32.418 85.2385 31.405 84.715L21.905 88.775C21.279 89.042 20.5889 89.1214 19.9187 89.0033C19.2485 88.8852 18.627 88.5749 18.13 88.11L11.1 81.515C10.5766 81.0261 10.2202 80.3851 10.0811 79.6825C9.94201 78.9799 10.0273 78.2514 10.325 77.6L14.41 68.7C13.8667 67.6459 13.363 66.5718 12.9 65.48C12.3595 64.1437 11.8593 62.7914 11.4 61.425L2.45001 58.7C1.72251 58.4801 1.08798 58.0262 0.644955 57.4086C0.201932 56.7911 -0.0247876 56.0446 6.29094e-06 55.285L0.350006 45.68C0.374919 45.0533 0.57069 44.4453 0.916146 43.9219C1.2616 43.3984 1.7436 42.9793 2.31001 42.71L11.7 38.2C12.135 36.605 12.515 35.365 12.85 34.46C13.3217 33.2512 13.8455 32.0634 14.42 30.9L10.35 22.3C10.0411 21.6469 9.94734 20.9127 10.0821 20.2029C10.2169 19.4932 10.5733 18.8444 11.1 18.35L18.12 11.72C18.6121 11.2559 19.2279 10.9438 19.8931 10.8214C20.5584 10.699 21.2449 10.7714 21.87 11.03L31.36 14.95C32.41 14.25 33.36 13.685 34.22 13.23C35.245 12.685 36.615 12.115 38.34 11.5L41.64 2.29499C41.884 1.62134 42.3299 1.0394 42.917 0.628649C43.504 0.217898 44.2035 -0.00164651 44.92 -6.13307e-06H55.39ZM52.94 6.88499H47.375L44.35 15.355C44.1721 15.8489 43.8844 16.2959 43.5085 16.6623C43.1325 17.0287 42.6783 17.3049 42.18 17.47C40 18.195 38.425 18.82 37.505 19.305C36.53 19.82 35.285 20.605 33.805 21.655C33.3206 21.9949 32.7582 22.2071 32.17 22.2718C31.5817 22.3365 30.9867 22.2516 30.44 22.025L21.29 18.25L17.725 21.62L21.44 29.47C21.6624 29.937 21.7753 30.4487 21.7701 30.966C21.7649 31.4832 21.6418 31.9925 21.41 32.455C20.41 34.46 19.735 35.94 19.395 36.85C18.8736 38.3648 18.4231 39.9032 18.045 41.46C17.9194 41.9473 17.6887 42.4011 17.3691 42.7898C17.0495 43.1785 16.6488 43.4926 16.195 43.71L7.24501 48.005L7.06501 52.905L15.165 55.365C16.24 55.69 17.09 56.515 17.445 57.575C18.245 59.975 18.885 61.745 19.345 62.855C19.9545 64.2636 20.6286 65.6434 21.365 66.99C21.6142 67.4533 21.7524 67.968 21.7689 68.4938C21.7854 69.0196 21.6796 69.542 21.46 70.02L17.705 78.21L21.26 81.55L30.17 77.74C30.6499 77.5349 31.1695 77.4393 31.691 77.46C32.2125 77.4808 32.7229 77.6174 33.185 77.86C35.01 78.82 36.37 79.485 37.23 79.85C38.105 80.215 39.78 80.825 42.21 81.655C42.6924 81.8197 43.1325 82.0888 43.499 82.4432C43.8654 82.7975 44.1492 83.2284 44.33 83.705L47.87 93.06L52.5 92.96L55.485 84.69C55.6557 84.2181 55.9271 83.789 56.2802 83.4324C56.6333 83.0758 57.0598 82.8003 57.53 82.625L62.715 80.685C64.025 80.2 65.615 79.435 67.47 78.385C67.9834 78.0966 68.5611 77.9417 69.1499 77.9348C69.7387 77.9278 70.3199 78.0688 70.84 78.345L78.725 82.52L83.16 78.565L79.28 70C79.0807 69.5603 78.9772 69.0833 78.9764 68.6005C78.9755 68.1178 79.0773 67.6404 79.275 67.2C80.185 65.165 80.8 63.63 81.11 62.65C81.415 61.69 81.73 60.305 82.035 58.525C82.1399 57.9204 82.4042 57.3547 82.8006 56.8862C83.1969 56.4178 83.7111 56.0635 84.29 55.86L92.53 52.935L92.89 47.235L84.79 43.765C84.3588 43.5814 83.9693 43.3121 83.6453 42.9735C83.3212 42.6349 83.0694 42.2339 82.905 41.795C82.3274 40.2012 81.697 38.627 81.015 37.075C80.3693 35.7236 79.6687 34.3992 78.915 33.105C78.6539 32.6477 78.5022 32.1362 78.4718 31.6105C78.4415 31.0848 78.5333 30.5593 78.74 30.075L82.365 21.575L78.545 17.625L71.105 21.565C70.6193 21.8226 70.0799 21.9627 69.5302 21.974C68.9806 21.9853 68.4359 21.8674 67.94 21.63C66.3608 20.8448 64.7457 20.134 63.1 19.5C61.6967 19.0287 60.2657 18.6447 58.815 18.35C58.2394 18.228 57.7043 17.9615 57.26 17.5758C56.8157 17.1901 56.4767 16.6977 56.275 16.145L52.94 6.88499ZM50.12 28.205C62.295 28.205 72.17 37.97 72.17 50.01C72.17 62.05 62.295 71.81 50.12 71.81C37.94 71.81 28.07 62.05 28.07 50.01C28.07 37.97 37.94 28.21 50.12 28.21M50.12 35.1C41.785 35.1 35.03 41.775 35.03 50.015C35.03 58.255 41.785 64.935 50.12 64.935C58.45 64.935 65.205 58.255 65.205 50.015C65.205 41.775 58.455 35.1 50.12 35.1Z" fill="black"/>
</g>
<defs>
<clipPath id="clip0_80_9">
<rect width="100" height="100" fill="white"/>
</clipPath>
</defs>
</svg>
