<svg width="100" height="100" viewBox="0 0 100 100" fill="none" xmlns="http://www.w3.org/2000/svg">
<path fill-rule="evenodd" clip-rule="evenodd" d="M58.2667 10.5917C58.6292 11.2958 58.7209 12.2 58.9 14.0083C59.2417 17.425 59.4125 19.1333 60.1292 20.075C60.5757 20.6597 61.1691 21.1157 61.849 21.3967C62.5289 21.6778 63.271 21.7738 64 21.675C65.1667 21.5208 66.5 20.4333 69.1584 18.2583C70.5625 17.1042 71.2667 16.5292 72.0209 16.2875C72.9814 15.9806 74.0206 16.0324 74.9459 16.4333C75.675 16.75 76.3209 17.3917 77.6 18.675L81.325 22.4C82.6084 23.6833 83.25 24.325 83.5667 25.0542C83.9677 25.9794 84.0195 27.0186 83.7125 27.9792C83.4709 28.7333 82.8959 29.4375 81.7459 30.8417C79.5667 33.5042 78.4792 34.8333 78.3209 36.0042C78.2233 36.7329 78.3204 37.4745 78.6021 38.1536C78.8839 38.8327 79.3403 39.4252 79.925 39.8708C80.8625 40.5875 82.575 40.7583 85.9959 41.1C87.8 41.2792 88.7042 41.3708 89.4125 41.7333C90.3061 42.1967 91.0017 42.9678 91.3709 43.9042C91.6667 44.6417 91.6667 45.55 91.6667 47.3667V52.6333C91.6667 54.45 91.6667 55.3583 91.375 56.0917C91.0047 57.031 90.3058 57.8039 89.4084 58.2667C88.7042 58.6292 87.8 58.7208 85.9917 58.9C82.575 59.2417 80.8667 59.4125 79.925 60.1292C79.3404 60.5757 78.8843 61.169 78.6033 61.8489C78.3223 62.5288 78.2263 63.271 78.325 64C78.4834 65.1667 79.5709 66.5 81.7459 69.1583C82.8959 70.5625 83.4709 71.2625 83.7125 72.0208C84.0195 72.9814 83.9677 74.0206 83.5667 74.9458C83.25 75.675 82.6084 76.3167 81.325 77.6L77.6 81.3208C76.3167 82.6083 75.675 83.25 74.9459 83.5625C74.0206 83.9635 72.9814 84.0153 72.0209 83.7083C71.2667 83.4667 70.5625 82.8917 69.1584 81.7417C66.4959 79.5667 65.1667 78.4792 64 78.325C63.271 78.2262 62.5289 78.3222 61.849 78.6033C61.1691 78.8843 60.5757 79.3403 60.1292 79.925C59.4125 80.8625 59.2417 82.5708 58.9 85.9917C58.7209 87.8 58.6292 88.7042 58.2667 89.4083C57.805 90.305 57.0337 91.0038 56.0959 91.375C55.3584 91.6667 54.45 91.6667 52.6334 91.6667H47.3667C45.55 91.6667 44.6417 91.6667 43.9084 91.375C42.969 91.0046 42.1961 90.3058 41.7334 89.4083C41.3709 88.7042 41.2792 87.8 41.1 85.9917C40.7584 82.575 40.5875 80.8667 39.8709 79.925C39.4247 79.341 38.8321 78.8854 38.153 78.6044C37.4739 78.3234 36.7326 78.227 36.0042 78.325C34.8334 78.4792 33.5042 79.5667 30.8417 81.7417C29.4375 82.8958 28.7334 83.4708 27.9792 83.7125C27.0187 84.0194 25.9794 83.9676 25.0542 83.5667C24.325 83.25 23.6792 82.6083 22.4 81.325L18.675 77.6C17.3917 76.3167 16.75 75.675 16.4334 74.9458C16.0324 74.0206 15.9806 72.9814 16.2875 72.0208C16.5292 71.2667 17.1042 70.5625 18.2542 69.1583C20.4334 66.4958 21.5209 65.1667 21.675 63.9958C21.773 63.2675 21.6767 62.5262 21.3957 61.8471C21.1147 61.168 20.659 60.5753 20.075 60.1292C19.1375 59.4125 17.425 59.2417 14.0042 58.9C12.2 58.7208 11.2959 58.6292 10.5875 58.2667C9.69399 57.8033 8.99836 57.0322 8.62921 56.0958C8.33337 55.3583 8.33337 54.45 8.33337 52.6333V47.3667C8.33337 45.55 8.33337 44.6417 8.62504 43.9083C8.9954 42.969 9.69427 42.1961 10.5917 41.7333C11.2959 41.3708 12.2 41.2792 14.0084 41.1C17.425 40.7583 19.1375 40.5875 20.075 39.8708C20.6598 39.4252 21.1162 38.8327 21.398 38.1536C21.6797 37.4745 21.7767 36.7329 21.6792 36.0042C21.5209 34.8333 20.4292 33.5042 18.2542 30.8375C17.1042 29.4333 16.5292 28.7333 16.2875 27.975C15.9806 27.0145 16.0324 25.9752 16.4334 25.05C16.75 24.325 17.3917 23.6792 18.675 22.3958L22.4 18.675C23.6834 17.3917 24.325 16.7458 25.0542 16.4333C25.9794 16.0324 27.0187 15.9806 27.9792 16.2875C28.7334 16.5292 29.4375 17.1042 30.8417 18.2542C33.5042 20.4292 34.8334 21.5167 36 21.675C36.7301 21.7741 37.4734 21.6778 38.1541 21.396C38.8348 21.1142 39.4286 20.6569 39.875 20.0708C40.5834 19.1333 40.7584 17.425 41.1 14.0042C41.2792 12.2 41.3709 11.2958 41.7334 10.5875C42.1959 9.69238 42.9671 8.99518 43.9042 8.62499C44.6417 8.33333 45.55 8.33333 47.3667 8.33333H52.6334C54.45 8.33333 55.3584 8.33333 56.0917 8.62499C57.0311 8.99536 57.804 9.69422 58.2667 10.5917ZM50 66.6667C54.4203 66.6667 58.6596 64.9107 61.7852 61.7851C64.9108 58.6595 66.6667 54.4203 66.6667 50C66.6667 45.5797 64.9108 41.3405 61.7852 38.2149C58.6596 35.0893 54.4203 33.3333 50 33.3333C45.5798 33.3333 41.3405 35.0893 38.2149 38.2149C35.0893 41.3405 33.3334 45.5797 33.3334 50C33.3334 54.4203 35.0893 58.6595 38.2149 61.7851C41.3405 64.9107 45.5798 66.6667 50 66.6667Z" fill="black"/>
</svg>
